<mxfile host="app.diagrams.net" agent="Mozilla/5.0 (Windows NT 10.0; Win64; x64) AppleWebKit/537.36 (KHTML, like Gecko) Chrome/141.0.0.0 Safari/537.36 Edg/141.0.0.0" version="28.2.8">
  <diagram name="第 1 页" id="UXbmrPyWWFjEStIXzOAG">
    <mxGraphModel dx="1004" dy="644" grid="1" gridSize="10" guides="1" tooltips="1" connect="1" arrows="1" fold="1" page="1" pageScale="1" pageWidth="800" pageHeight="800" math="0" shadow="0">
      <root>
        <mxCell id="0" />
        <mxCell id="1" parent="0" />
        <mxCell id="kc7xKFroxSbVlX_i2S-9-1" value="" style="ellipse;whiteSpace=wrap;html=1;aspect=fixed;dashed=1;" vertex="1" parent="1">
          <mxGeometry x="414" y="545" width="80" height="80" as="geometry" />
        </mxCell>
        <mxCell id="kc7xKFroxSbVlX_i2S-9-2" value="" style="ellipse;whiteSpace=wrap;html=1;aspect=fixed;dashed=1;" vertex="1" parent="1">
          <mxGeometry x="334" y="545" width="80" height="80" as="geometry" />
        </mxCell>
        <mxCell id="kc7xKFroxSbVlX_i2S-9-3" value="" style="ellipse;whiteSpace=wrap;html=1;aspect=fixed;" vertex="1" parent="1">
          <mxGeometry x="447.5" y="578" width="13" height="13" as="geometry" />
        </mxCell>
        <mxCell id="kc7xKFroxSbVlX_i2S-9-5" value="" style="ellipse;whiteSpace=wrap;html=1;aspect=fixed;" vertex="1" parent="1">
          <mxGeometry x="367.5" y="578.5" width="13" height="13" as="geometry" />
        </mxCell>
        <mxCell id="kc7xKFroxSbVlX_i2S-9-6" value="" style="rounded=0;whiteSpace=wrap;html=1;rotation=65;" vertex="1" parent="1">
          <mxGeometry x="425.71" y="564.92" width="41.15" height="2" as="geometry" />
        </mxCell>
        <mxCell id="kc7xKFroxSbVlX_i2S-9-8" value="" style="rounded=0;whiteSpace=wrap;html=1;rotation=120;" vertex="1" parent="1">
          <mxGeometry x="363" y="566.92" width="41.14" height="2" as="geometry" />
        </mxCell>
        <mxCell id="kc7xKFroxSbVlX_i2S-9-9" value="" style="rounded=0;whiteSpace=wrap;html=1;rotation=-245;" vertex="1" parent="1">
          <mxGeometry x="416.57" y="514.62" width="70.86" height="2" as="geometry" />
        </mxCell>
        <mxCell id="kc7xKFroxSbVlX_i2S-9-10" value="" style="rounded=0;whiteSpace=wrap;html=1;rotation=65;" vertex="1" parent="1">
          <mxGeometry x="343.63967280050963" y="517.6231031564492" width="70.86" height="2" as="geometry" />
        </mxCell>
        <mxCell id="kc7xKFroxSbVlX_i2S-9-11" value="" style="rounded=0;whiteSpace=wrap;html=1;rotation=-195;" vertex="1" parent="1">
          <mxGeometry x="465.62" y="468.35" width="109.38" height="2" as="geometry" />
        </mxCell>
        <mxCell id="kc7xKFroxSbVlX_i2S-9-12" value="" style="rounded=0;whiteSpace=wrap;html=1;rotation=-193;" vertex="1" parent="1">
          <mxGeometry x="451.4953024848518" y="500.0007394029459" width="109.38" height="2" as="geometry" />
        </mxCell>
        <mxCell id="kc7xKFroxSbVlX_i2S-9-13" value="" style="rounded=0;whiteSpace=wrap;html=1;rotation=-155;" vertex="1" parent="1">
          <mxGeometry x="259.99530248485166" y="462.3507394029459" width="109.38" height="2" as="geometry" />
        </mxCell>
        <mxCell id="kc7xKFroxSbVlX_i2S-9-15" value="" style="rounded=0;whiteSpace=wrap;html=1;rotation=-155;" vertex="1" parent="1">
          <mxGeometry x="277.45" y="495.74" width="105.88" height="2" as="geometry" />
        </mxCell>
        <mxCell id="kc7xKFroxSbVlX_i2S-9-16" value="" style="rounded=0;whiteSpace=wrap;html=1;rotation=-115;" vertex="1" parent="1">
          <mxGeometry x="253.78" y="455.99" width="38.95" height="2" as="geometry" />
        </mxCell>
        <mxCell id="kc7xKFroxSbVlX_i2S-9-17" value="" style="rounded=0;whiteSpace=wrap;html=1;rotation=-65;" vertex="1" parent="1">
          <mxGeometry x="545.8717984344369" y="470.35296241427943" width="38.95" height="2" as="geometry" />
        </mxCell>
        <mxCell id="kc7xKFroxSbVlX_i2S-9-18" value="" style="rounded=0;whiteSpace=wrap;html=1;rotation=-152;" vertex="1" parent="1">
          <mxGeometry x="568.48" y="471.95" width="79.82" height="2" as="geometry" />
        </mxCell>
        <mxCell id="kc7xKFroxSbVlX_i2S-9-19" value="" style="rounded=0;whiteSpace=wrap;html=1;rotation=-30;" vertex="1" parent="1">
          <mxGeometry x="190.99790999378564" y="458.98955766364384" width="79.82" height="2" as="geometry" />
        </mxCell>
        <mxCell id="kc7xKFroxSbVlX_i2S-9-20" value="" style="ellipse;whiteSpace=wrap;html=1;aspect=fixed;" vertex="1" parent="1">
          <mxGeometry x="NaN" y="NaN" width="4" height="NaN" as="geometry" />
        </mxCell>
      </root>
    </mxGraphModel>
  </diagram>
</mxfile>
